<svg xmlns="http://www.w3.org/2000/svg" viewBox="0 0 448 512">
  <!-- Font Awesome Free 6 - align-justify last-left; License: CC BY 4.0, https://fontawesome.com/license/free -->
  <path fill="currentColor" d="M448 64c0-17.7-14.3-32-32-32H32C14.3 32 0 46.3 0 64s14.3 32 32 32h384c17.7 0 32-14.3 32-32zM448 192c0-17.7-14.3-32-32-32H32c-17.7 0-32 14.3-32 32s14.3 32 32 32h384c17.7 0 32-14.3 32-32zM448 320c0-17.7-14.3-32-32-32H32c-17.7 0-32 14.3-32 32s14.3 32 32 32h384c17.7 0 32-14.3 32-32zM288 448c0-17.7-14.3-32-32-32H32c-17.7 0-32 14.3-32 32s14.3 32 32 32h224c17.7 0 32-14.3 32-32z"/>
</svg>
