<svg width="100%" height="100%" viewBox="0 0 350 350" xmlns="http://www.w3.org/2000/svg">
  <g transform="matrix(4.166667,0,0,4.166667,-1398.807633,-2284.019196)">
    <path fill="currentColor" d="M262.437,621.579L262.437,602.767C262.437,596.968 267.138,592.267 272.937,592.267C291.482,592.267 306.539,577.21 306.539,558.665C306.539,552.866 311.24,548.165 317.039,548.165L335.852,548.165C341.651,548.165 346.352,552.866 346.352,558.665L346.352,621.579C346.352,627.378 341.651,632.079 335.852,632.079L272.937,632.079C267.138,632.079 262.437,627.378 262.437,621.579ZM288.275,611.079L325.352,611.079L325.352,574.002C320.141,591.815 306.087,605.868 288.275,611.079Z" transform="translate(73.2768,0)"/>
  </g>
</svg>
