<svg width="100%" height="100%" viewBox="0 0 350 350" xmlns="http://www.w3.org/2000/svg">
  <g transform="matrix(4.166667,0,0,4.166667,-1958.510865,-2284.019196)">
    <path fill="currentColor" d="M262.437,621.579L262.437,595.982C262.437,590.183 267.138,585.482 272.937,585.482L299.754,585.482L299.754,558.665C299.754,552.866 304.455,548.165 310.254,548.165L335.852,548.165C341.651,548.165 346.352,552.866 346.352,558.665L346.352,621.579C346.352,627.378 341.651,632.079 335.852,632.079L272.937,632.079C267.138,632.079 262.437,627.378 262.437,621.579ZM283.437,611.079L325.352,611.079L325.352,569.165L320.754,569.165L320.754,595.982C320.754,601.781 316.053,606.482 310.254,606.482L283.437,606.482L283.437,611.079Z" transform="translate(207.605576,0)"/>
  </g>
</svg>
