<svg width="100%" height="100%" viewBox="0 0 350 350" xmlns="http://www.w3.org/2000/svg">
  <g transform="matrix(4.166667,0,0,4.166667,-2626.89372,-2284.019196)">
    <path fill="currentColor" d="M262.437,621.579L262.437,593.514C262.437,590.73 263.543,588.059 265.512,586.09L300.362,551.24C302.331,549.271 305.002,548.165 307.787,548.165L335.852,548.165C341.651,548.165 346.352,552.866 346.352,558.665L346.352,621.579C346.352,627.378 341.651,632.079 335.852,632.079L272.937,632.079C267.138,632.079 262.437,627.378 262.437,621.579ZM283.437,611.079L325.352,611.079L325.352,569.165L312.136,569.165L283.437,597.864L283.437,611.079Z" transform="translate(368.017461,0)"/>
  </g>
</svg>
