<svg xmlns="http://www.w3.org/2000/svg" viewBox="0 0 512 512">
  <!-- Font Awesome Free 6 - export; License: CC BY 4.0, https://fontawesome.com/license/free -->
  <path fill="currentColor"  d="M128 64c0-35.3 28.7-64 64-64L352 0l0 128c0 17.7 14.3 32 32 32l128 0 0 288c0 35.3-28.7 64-64 64l-256 0c-35.3 0-64-28.7-64-64l0-112 174.1 0-39 39c-9.4 9.4-9.4 24.6 0 33.9s24.6 9.4 33.9 0l80-80c9.4-9.4 9.4-24.6 0-33.9l-80-80c-9.4-9.4-24.6-9.4-33.9 0s-9.4 24.6 0 33.9l39 39L128 288l0-224zM512 128l-128 0L384 0 512 128z"/>
</svg>
