<svg xmlns="http://www.w3.org/2000/svg" viewBox="0 0 512 512">
  <!-- Font Awesome Free 6 - globe; License: CC BY 4.0, https://fontawesome.com/license/free -->
  <path fill="currentColor"  d="M352 256c0 22.2-1.2 43.6-3.3 64H163.3c-2.2-20.4-3.3-41.8-3.3-64s1.2-43.6 3.3-64h185.4c2.2 20.4 3.3 41.8 3.3 64zM503.9 192c5.3 20.5 8.1 41.9 8.1 64s-2.8 43.5-8.1 64H380.8c2.1-20.6 3.2-42 3.2-64s-1.1-43.4-3.2-64h123.1zM493.4 160H376.7c-9.6-56.3-27.9-104.7-52.5-138.5C400.5 43.4 462.6 96.6 493.4 160zM344.3 160H167.7c6.1-32.4 15.5-61.9 27.4-86.4C211.2 40.4 232.2 32 256 32s44.8 8.4 60.9 41.6c11.9 24.5 21.3 54 27.4 86.4zM135.3 160H18.6C49.4 96.6 111.5 43.4 187.8 21.5C163.2 55.3 144.9 103.7 135.3 160zM8.1 192h123.1c-2.1 20.6-3.2 42-3.2 64s1.1 43.4 3.2 64H8.1C2.8 299.5 0 278.1 0 256s2.8-43.5 8.1-64zM167.7 352h176.6c-6.1 32.4-15.5 61.9-27.4 86.4C300.8 471.6 279.8 480 256 480s-44.8-8.4-60.9-41.6c-11.9-24.5-21.3-54-27.4-86.4zM135.3 352c9.6 56.3 27.9 104.7 52.5 138.5C111.5 468.6 49.4 415.4 18.6 352h116.7zM324.2 490.5c24.6-33.8 42.9-82.2 52.5-138.5h116.7c-30.8 63.4-92.9 116.6-169.2 138.5z"/>
</svg>
