<svg xmlns="http://www.w3.org/2000/svg" viewBox="0 0 512 512">
  <!-- Font Awesome Free 6 - icon-view; License: CC BY 4.0, https://fontawesome.com/license/free -->
  <path fill="currentColor" d="M0 96c0-35.3 28.7-64 64-64h96c35.3 0 64 28.7 64 64v96c0 35.3-28.7 64-64 64H64c-35.3 0-64-28.7-64-64V96zm288 0c0-35.3 28.7-64 64-64h96c35.3 0 64 28.7 64 64v96c0 35.3-28.7 64-64 64h-96c-35.3 0-64-28.7-64-64V96zM0 352c0-35.3 28.7-64 64-64h96c35.3 0 64 28.7 64 64v96c0 35.3-28.7 64-64 64H64c-35.3 0-64-28.7-64-64v-96zm288 0c0-35.3 28.7-64 64-64h96c35.3 0 64 28.7 64 64v96c0 35.3-28.7 64-64 64h-96c-35.3 0-64-28.7-64-64v-96z"/>
</svg>
