<svg xmlns="http://www.w3.org/2000/svg" viewBox="0 0 512 512">
  <!-- Font Awesome Free 6 - image; License: CC BY 4.0, https://fontawesome.com/license/free -->
  <path fill="currentColor" d="M448 80v352H64V80h384zm0-48H64C28.7 32 0 60.7 0 96v320c0 35.3 28.7 64 64 64h384c35.3 0 64-28.7 64-64V96c0-35.3-28.7-64-64-64zM160 176a48 48 0 1 0 0-96 48 48 0 1 0 0 96zm-32 224h256c8.8 0 16-7.2 16-16c0-3.2-1-6.3-2.7-8.9L331.3 276c-6.3-9.4-20.1-9.4-26.4 0l-46.9 70.3-23.5-35.3c-6.3-9.4-20.1-9.4-26.4 0l-93.3 140c-7.1 10.6 .5 24.9 13.3 24.9z"/>
</svg>
