<svg xmlns="http://www.w3.org/2000/svg" viewBox="0 0 640 512">
  <!-- Font Awesome Free 6 - layer-hidden; License: CC BY 4.0, https://fontawesome.com/license/free -->
  <path fill="currentColor"  d="M38.8 5.1C28.4-3.1 13.3-1.2 5.1 9.2S-1.2 34.7 9.2 42.9l592 464c10.4 8.2 25.5 6.3 33.7-4.1s6.3-25.5-4.1-33.7L525.6 386.7c39.6-31.4 71.9-70.9 94.9-116.1c4.7-9.2 4.7-20 0-29.2C566.9 135.5 458.6 64 336 64c-39.1 0-76.7 7.2-111.5 20.3L38.8 5.1zM288 160a96 96 0 0 1 96 96c0 10.5-1.7 20.6-4.8 30.1L257.9 190.9C267.4 187.7 277.5 186 288 186v-26zM86.8 141.6C50.2 169.8 20.5 203.3 0 241.4c-4.7 9.2-4.7 20 0 29.2C53.6 376.5 161.9 448 284.5 448c30.2 0 59.2-4.3 86.5-12.3L309.2 387.2c-7 1.8-14.4 2.8-21.9 2.8a96 96 0 0 1-96-96c0-7.6 1-14.9 2.8-21.9L86.8 141.6z"/>
</svg>
