<svg xmlns="http://www.w3.org/2000/svg" viewBox="0 0 512 512">
  <!-- Font Awesome Free 6 - list-view; License: CC BY 4.0, https://fontawesome.com/license/free -->
  <path fill="currentColor" d="M40 48h48c22.1 0 40 17.9 40 40v48c0 22.1-17.9 40-40 40H40c-22.1 0-40-17.9-40-40V88c0-22.1 17.9-40 40-40zm0 144h48c22.1 0 40 17.9 40 40v48c0 22.1-17.9 40-40 40H40c-22.1 0-40-17.9-40-40v-48c0-22.1 17.9-40 40-40zm0 144h48c22.1 0 40 17.9 40 40v48c0 22.1-17.9 40-40 40H40c-22.1 0-40-17.9-40-40v-48c0-22.1 17.9-40 40-40zm160-264h280c17.7 0 32 14.3 32 32s-14.3 32-32 32H200c-17.7 0-32-14.3-32-32s14.3-32 32-32zm0 144h280c17.7 0 32 14.3 32 32s-14.3 32-32 32H200c-17.7 0-32-14.3-32-32s14.3-32 32-32zm0 144h280c17.7 0 32 14.3 32 32s-14.3 32-32 32H200c-17.7 0-32-14.3-32-32s14.3-32 32-32z"/>
</svg>
