<svg xmlns="http://www.w3.org/2000/svg" viewBox="0 0 512 512">
  <!-- Font Awesome Free 6 - loop; License: CC BY 4.0, https://fontawesome.com/license/free -->
  <path fill="currentColor"  d="M0 224c0 17.7 14.3 32 32 32s32-14.3 32-32c0-53 43-96 96-96h171.9l-36.7 36.7c-12.5 12.5-12.5 32.8 0 45.3s32.8 12.5 45.3 0l91.3-91.3c12.5-12.5 12.5-32.8 0-45.3L340.5-18c-12.5-12.5-32.8-12.5-45.3 0s-12.5 32.8 0 45.3L331.9 64H160C71.6 64 0 135.6 0 224zm512 64c0-17.7-14.3-32-32-32s-32 14.3-32 32c0 53-43 96-96 96H180.1l36.7-36.7c12.5-12.5 12.5-32.8 0-45.3s-32.8-12.5-45.3 0L80.2 393.4c-12.5 12.5-12.5 32.8 0 45.3l91.3 91.3c12.5 12.5 32.8 12.5 45.3 0s12.5-32.8 0-45.3L180.1 448H352c88.4 0 160-71.6 160-160z"/>
</svg>
