<svg xmlns="http://www.w3.org/2000/svg" viewBox="0 0 448 512">
  <!-- Font Awesome Free 6 - first-line-indent; License: CC BY 4.0, https://fontawesome.com/license/free -->
  <path fill="currentColor" d="M160 64h256c17.7 0 32 14.3 32 32s-14.3 32-32 32H160V64zM160 224c0-17.7 14.3-32 32-32h224c17.7 0 32 14.3 32 32s-14.3 32-32 32H192c-17.7 0-32-14.3-32-32zM160 352c0-17.7 14.3-32 32-32h224c17.7 0 32 14.3 32 32s-14.3 32-32 32H192c-17.7 0-32-14.3-32-32zM32 416h384c17.7 0 32 14.3 32 32s-14.3 32-32 32H32c-17.7 0-32-14.3-32-32s14.3-32 32-32zM0 96l96-64v128L0 96z"/>
</svg>
