<svg xmlns="http://www.w3.org/2000/svg" viewBox="0 0 512 512">
  <!-- Font Awesome Free 6 - redo; License: CC BY 4.0, https://fontawesome.com/license/free -->
  <path fill="currentColor"  d="M463.5 224h8.5c13.3 0 24-10.7 24-24V72c0-9.7-5.8-18.5-14.8-22.2s-19.3-1.7-26.2 5.2l-41.6 41.6C327.4 22.2 196.1 26.8 115.2 107.7c-87.5 87.5-87.5 229.3 0 316.8s229.3 87.5 316.8 0c12.5-12.5 12.5-32.8 0-45.3s-32.8-12.5-45.3 0c-62.5 62.5-163.8 62.5-226.3 0s-62.5-163.8 0-226.3c56.2-56.2 144.9-62.1 207.8-17.6L319 184.6c-6.9 6.9-8.9 17.2-5.2 26.2S326.3 224 336 224h127.5z"/>
</svg>
